<?xml version="1.0" encoding="iso-8859-1"?>
<!-- Generator: Adobe Illustrator 18.0.0, SVG Export Plug-In . SVG Version: 6.00 Build 0)  -->
<!DOCTYPE svg PUBLIC "-//W3C//DTD SVG 1.1//EN" "http://www.w3.org/Graphics/SVG/1.1/DTD/svg11.dtd">
<svg version="1.1" id="Capa_1" xmlns="http://www.w3.org/2000/svg" xmlns:xlink="http://www.w3.org/1999/xlink" x="0px" y="0px"
	 viewBox="0 0 402.17 402.17" style="enable-background:new 0 0 402.17 402.17;" xml:space="preserve">
<g>
	<path d="M392.094,32.321h-99.093l0.317-0.317c-12.659-12.659-29.479-19.631-47.357-19.631c-17.88,0-34.698,6.972-47.357,19.631
		l0.317,0.317H99.828c-5.557,0-10.077,4.521-10.077,10.077v33.448H61.997v-24.55c0-17.093-13.906-30.999-30.999-30.999
		S0,34.203,0,51.296v1.551C0,69.94,13.905,83.846,30.998,83.846h22.999v121.591c-7.247,1.523-12.705,7.962-12.705,15.655v20.47
		c0,7.693,5.458,14.132,12.705,15.655v29.696c0,2.209,1.791,4,4,4s4-1.791,4-4v-29.696c7.247-1.523,12.705-7.962,12.705-15.655
		v-20.47c0-7.693-5.458-14.132-12.705-15.655V83.846h27.754v279.181c0,14.762,12.01,26.771,26.771,26.771h258.876
		c14.762,0,26.771-12.009,26.771-26.771V42.398C402.17,36.842,397.649,32.321,392.094,32.321z M30.998,75.846
		C18.316,75.846,8,65.529,8,52.847v-1.551c0-12.682,10.316-22.999,22.998-22.999s22.999,10.317,22.999,22.999v24.55H30.998z
		 M58.703,249.561h-1.412c-4.411,0-7.999-3.588-7.999-8v-14.176h17.41v14.176C66.702,245.972,63.114,249.561,58.703,249.561z
		 M66.515,219.385H49.479c0.784-3.593,3.986-6.293,7.812-6.293h1.412C62.528,213.092,65.73,215.792,66.515,219.385z M245.961,20.372
		c13.008,0,25.373,4.202,35.568,11.949h-71.136C220.588,24.575,232.952,20.372,245.961,20.372z M134.833,83.846
		c1.625,4.311,5.78,7.392,10.653,7.392c6.282,0,11.393-5.11,11.393-11.392s-5.11-11.392-11.393-11.392
		c-4.872,0-9.028,3.081-10.653,7.392h-6.367V60.967h234.989v35.131c-38.48,8.93-77.992,13.456-117.494,13.456
		s-79.014-4.526-117.495-13.456V83.846H134.833z M142.094,79.846c0-1.871,1.521-3.392,3.392-3.392c1.871,0,3.393,1.521,3.393,3.392
		s-1.521,3.392-3.393,3.392C143.615,83.238,142.094,81.717,142.094,79.846z M120.467,99.266c0,1.852,1.271,3.461,3.072,3.891
		c40.055,9.553,81.243,14.397,122.422,14.397s82.367-4.844,122.422-14.397c1.802-0.43,3.072-2.04,3.072-3.891V56.967
		c0-2.209-1.791-4-4-4H124.466c-1.061,0-2.078,0.421-2.828,1.172c-0.75,0.75-1.172,1.768-1.172,2.828l0,18.879H97.751V42.398
		c0-1.145,0.932-2.077,2.077-2.077h292.266c1.145,0,2.076,0.932,2.076,2.077v308.456c-16.206,1.844-29.101,14.738-30.946,30.944
		H128.695c-1.845-16.205-14.739-29.099-30.944-30.944V83.846h22.715L120.467,99.266z M97.751,363.027v-4.11
		c11.789,1.748,21.133,11.092,22.882,22.881h-4.11C106.172,381.798,97.751,373.377,97.751,363.027z M375.398,381.798h-4.112
		c1.748-11.79,11.093-21.134,22.884-22.881v4.11C394.17,373.377,385.749,381.798,375.398,381.798z"/>
	<path d="M124.466,361.13h242.989c2.209,0,4-1.791,4-4V114.141c0-1.223-0.559-2.378-1.518-3.136s-2.209-1.038-3.401-0.757
		c-39.462,9.311-80.029,14.033-120.575,14.033s-81.113-4.722-120.576-14.033c-1.193-0.281-2.442-0.002-3.401,0.757
		c-0.959,0.758-1.518,1.914-1.518,3.136V357.13C120.466,359.339,122.257,361.13,124.466,361.13z M128.467,163.28l37.105-37.105
		c8.081,1.232,16.191,2.271,24.32,3.131l-61.425,61.425V163.28z M128.466,202.045l71.744-71.743
		c8.607,0.742,17.232,1.272,25.865,1.596l-97.608,97.608L128.466,202.045z M128.466,279.593l148.196-148.206
		c10.036-0.58,20.056-1.446,30.044-2.592l-178.24,178.25V279.593z M128.466,318.357l191.19-191.2
		c11.112-1.551,22.172-3.463,33.162-5.711L128.466,345.807L128.466,318.357z M363.455,304.648l-48.482,48.482h-27.45l75.933-75.932
		V304.648z M363.455,265.885l-87.246,87.246h-27.451l114.697-114.706V265.885z M363.455,227.111L237.446,353.13h-27.452
		l153.461-153.47V227.111z M363.455,188.347L198.682,353.13h-27.461l192.234-192.234V188.347z M363.455,149.583L159.907,353.13
		h-27.451l230.999-231.009V149.583z M326.286,353.13l37.169-37.169v37.169H326.286z M264.803,131.933L128.466,268.28l0-27.461
		l108.621-108.62c2.958,0.049,5.916,0.082,8.874,0.082C252.243,132.281,258.524,132.156,264.803,131.933z M155.839,124.594
		l-27.372,27.372l0-32.797C137.54,121.22,146.669,123.022,155.839,124.594z"/>
	<path d="M342.923,94.349c7.654,0,13.882-6.228,13.882-13.882s-6.228-13.882-13.882-13.882c-7.655,0-13.883,6.228-13.883,13.882
		S335.268,94.349,342.923,94.349z M342.923,74.585c3.243,0,5.882,2.639,5.882,5.882s-2.639,5.882-5.882,5.882
		c-3.244,0-5.883-2.639-5.883-5.882S339.679,74.585,342.923,74.585z"/>
	<path d="M172.968,91.238c6.282,0,11.393-5.11,11.393-11.392s-5.11-11.392-11.393-11.392c-6.281,0-11.392,5.11-11.392,11.392
		S166.687,91.238,172.968,91.238z M172.968,76.454c1.871,0,3.393,1.521,3.393,3.392s-1.521,3.392-3.393,3.392
		c-1.87,0-3.392-1.521-3.392-3.392S171.098,76.454,172.968,76.454z"/>
	<path d="M200.45,91.238c6.282,0,11.393-5.11,11.393-11.392s-5.11-11.392-11.393-11.392c-6.281,0-11.392,5.11-11.392,11.392
		S194.169,91.238,200.45,91.238z M200.45,76.454c1.871,0,3.393,1.521,3.393,3.392s-1.521,3.392-3.393,3.392
		c-1.87,0-3.392-1.521-3.392-3.392S198.58,76.454,200.45,76.454z"/>
	<path d="M227.933,91.238c6.281,0,11.392-5.11,11.392-11.392s-5.11-11.392-11.392-11.392c-6.282,0-11.393,5.11-11.393,11.392
		S221.65,91.238,227.933,91.238z M227.933,76.454c1.87,0,3.392,1.521,3.392,3.392s-1.521,3.392-3.392,3.392
		c-1.871,0-3.393-1.521-3.393-3.392S226.062,76.454,227.933,76.454z"/>
</g>
<g>
</g>
<g>
</g>
<g>
</g>
<g>
</g>
<g>
</g>
<g>
</g>
<g>
</g>
<g>
</g>
<g>
</g>
<g>
</g>
<g>
</g>
<g>
</g>
<g>
</g>
<g>
</g>
<g>
</g>
</svg>
