<?xml version="1.0" encoding="iso-8859-1"?>
<!-- Generator: Adobe Illustrator 19.0.0, SVG Export Plug-In . SVG Version: 6.00 Build 0)  -->
<svg version="1.1" id="Capa_1" xmlns="http://www.w3.org/2000/svg" xmlns:xlink="http://www.w3.org/1999/xlink" x="0px" y="0px"
	 viewBox="0 0 56.799 56.799" style="enable-background:new 0 0 56.799 56.799;" xml:space="preserve">
<g>
	<path d="M56.071,51.311L31.682,18.021l3.632-5.342c0.762-1.134,0.473-2.697-0.644-3.486c-1.134-0.801-2.672-0.554-3.502,0.566
		l-2.77,3.781l-2.773-3.786c-0.813-1.097-2.384-1.348-3.5-0.561c-1.115,0.789-1.403,2.352-0.64,3.49l3.629,5.337L0.731,51.305
		c-0.557,0.75-0.782,1.672-0.635,2.595s0.649,1.729,1.413,2.268c0.588,0.416,1.272,0.632,1.977,0.632
		c0.209,0,0.421-0.02,0.632-0.059c0.92-0.169,1.713-0.69,2.23-1.461l22.05-32.429l22.048,32.424
		c0.521,0.776,1.315,1.297,2.234,1.466c0.211,0.039,0.423,0.059,0.632,0.059c0.704,0,1.389-0.216,1.977-0.632
		c0.763-0.539,1.265-1.344,1.413-2.267C56.85,52.978,56.625,52.056,56.071,51.311z M32.778,10.946
		c0.176-0.237,0.5-0.287,0.739-0.119c0.236,0.167,0.298,0.498,0.14,0.732l-3.229,4.75l-0.461-0.629l-0.328-0.448L32.778,10.946z
		 M4.691,54.159c-0.219,0.325-0.551,0.544-0.936,0.614c-0.386,0.072-0.772-0.013-1.092-0.239c-0.32-0.227-0.531-0.564-0.593-0.951
		c-0.062-0.386,0.032-0.771,0.27-1.091l23.968-32.715l0.881,1.295L4.691,54.159z M54.727,53.584
		c-0.062,0.387-0.271,0.724-0.592,0.95c-0.319,0.227-0.704,0.312-1.092,0.239c-0.385-0.07-0.718-0.289-0.939-0.619L29.608,21.072
		l0,0L26.37,16.31l0,0l-3.227-4.745c-0.161-0.239-0.1-0.57,0.136-0.736c0.094-0.066,0.202-0.098,0.31-0.098
		c0.164,0,0.326,0.074,0.428,0.211l3.144,4.291l0,0l3.329,4.544v0l23.973,32.721C54.694,52.812,54.789,53.197,54.727,53.584z"/>
	<path d="M28.305,6.792c2.227,0,4.453-0.848,6.147-2.542c0.391-0.391,0.391-1.023,0-1.414s-1.023-0.391-1.414,0
		c-2.609,2.61-6.856,2.608-9.466,0c-0.391-0.391-1.023-0.391-1.414,0s-0.391,1.023,0,1.414C23.852,5.944,26.079,6.792,28.305,6.792z
		"/>
	<path d="M12.572,21.576c0.195,0.195,0.451,0.293,0.707,0.293s0.512-0.098,0.707-0.293c1.135-1.134,1.76-2.641,1.76-4.242
		c0-1.603-0.625-3.109-1.76-4.243c-0.391-0.391-1.023-0.391-1.414,0s-0.391,1.023,0,1.414c0.757,0.757,1.174,1.761,1.174,2.829
		c0,1.067-0.417,2.071-1.174,2.828C12.182,20.553,12.182,21.186,12.572,21.576z"/>
	<path d="M40.745,21.869c0.256,0,0.512-0.098,0.707-0.293c0.391-0.391,0.391-1.023,0-1.414c-1.56-1.56-1.56-4.098,0-5.657
		c0.391-0.391,0.391-1.023,0-1.414s-1.023-0.391-1.414,0c-2.34,2.34-2.34,6.146,0,8.485C40.233,21.771,40.489,21.869,40.745,21.869z
		"/>
	<path d="M44.745,19.869c0.256,0,0.512-0.098,0.707-0.293c0.391-0.391,0.391-1.023,0-1.414c-0.457-0.457-0.457-1.2,0-1.657
		c0.391-0.391,0.391-1.023,0-1.414s-1.023-0.391-1.414,0c-1.236,1.236-1.236,3.249,0,4.485
		C44.233,19.771,44.489,19.869,44.745,19.869z"/>
	<path d="M28.306,2.764c0.962,0,1.867-0.375,2.549-1.057c0.391-0.391,0.391-1.023,0-1.414s-1.023-0.391-1.414,0
		c-0.608,0.608-1.663,0.606-2.27,0c-0.391-0.391-1.023-0.391-1.414,0c-0.391,0.39-0.391,1.023,0,1.414
		C26.437,2.389,27.343,2.764,28.306,2.764z"/>
	<path d="M22.158,34.548c-0.391,0.391-0.391,1.023,0,1.414s1.023,0.391,1.414,0c2.609-2.608,6.856-2.61,9.466,0
		c0.195,0.195,0.451,0.293,0.707,0.293s0.512-0.098,0.707-0.293c0.391-0.391,0.391-1.023,0-1.414
		C31.064,31.159,25.548,31.157,22.158,34.548z"/>
	<path d="M25.757,37.091c-0.391,0.391-0.391,1.023,0,1.414c0.195,0.195,0.451,0.293,0.707,0.293s0.512-0.098,0.707-0.293
		c0.625-0.625,1.645-0.625,2.27,0c0.391,0.391,1.023,0.391,1.414,0s0.391-1.024,0-1.414C29.447,35.684,27.16,35.688,25.757,37.091z"
		/>
	<path d="M8.743,19.576c0.195,0.195,0.451,0.293,0.707,0.293s0.512-0.098,0.707-0.293c0.6-0.599,0.93-1.396,0.93-2.242
		c0-0.848-0.33-1.645-0.93-2.243c-0.391-0.391-1.025-0.391-1.414,0c-0.391,0.391-0.391,1.024,0,1.414
		c0.222,0.222,0.344,0.516,0.344,0.829c0,0.313-0.122,0.606-0.344,0.828C8.352,18.552,8.352,19.186,8.743,19.576z"/>
</g>
<g>
</g>
<g>
</g>
<g>
</g>
<g>
</g>
<g>
</g>
<g>
</g>
<g>
</g>
<g>
</g>
<g>
</g>
<g>
</g>
<g>
</g>
<g>
</g>
<g>
</g>
<g>
</g>
<g>
</g>
</svg>
