<?xml version="1.0" encoding="iso-8859-1"?>
<!-- Generator: Adobe Illustrator 19.0.0, SVG Export Plug-In . SVG Version: 6.00 Build 0)  -->
<svg version="1.1" id="Layer_1" xmlns="http://www.w3.org/2000/svg" xmlns:xlink="http://www.w3.org/1999/xlink" x="0px" y="0px"
	 viewBox="0 0 511.981 511.981" style="enable-background:new 0 0 511.981 511.981;" xml:space="preserve">
<g>
	<g>
		<path d="M511.981,223.992v-31.999c0-25.397-27.468-47.186-79.419-62.998c-14.827-4.515-31.171-8.39-48.67-11.593L507.95,19.023
			c4.609-3.656,5.375-10.367,1.719-14.984c-3.656-4.617-10.375-5.39-14.984-1.727L355.206,112.918
			c-30.936-4.093-64.561-6.25-99.215-6.25c-34.663,0-68.278,2.156-99.223,6.25L17.297,2.313C12.679-1.35,5.97-0.577,2.313,4.04
			C-1.351,8.657-0.578,15.368,4.04,19.024l124.058,98.379c-17.507,3.203-33.851,7.078-48.686,11.593
			c-51.951,15.812-79.411,37.6-79.411,62.997v31.999c0,9.445,3.797,18.39,11.242,26.709v133.284h-0.578
			c-5.891,0-10.664,4.781-10.664,10.672v31.998c0,25.391,27.46,47.188,79.411,62.998c47.318,14.391,110.026,22.328,176.579,22.328
			c66.561,0,129.261-7.938,176.571-22.328c51.951-15.811,79.419-37.607,79.419-62.998v-31.998c0-5.891-4.781-10.672-10.656-10.672
			h-0.594V250.701C508.184,242.382,511.981,233.438,511.981,223.992z M127.996,479.528c-15.188-2.891-29.397-6.326-42.373-10.295
			c-47.398-14.406-64.287-31.453-64.287-42.578v-6.17c10.266,12.498,29.952,25.654,65.889,37.123c12.538,4,26.209,7.5,40.771,10.469
			V479.528z M127.996,446.296c-12.195-2.625-23.679-5.625-34.288-9c-37.709-12.029-61.138-28.373-61.138-42.639V267.468
			c12.28,7.227,27.937,13.771,46.842,19.521c14.804,4.5,31.116,8.375,48.584,11.578V446.296z M127.996,276.864
			c-15.188-2.904-29.397-6.334-42.373-10.279c-26.304-8.008-43.21-16.82-53.053-24.976v-6.14
			c12.28,7.226,27.937,13.772,46.842,19.521c14.804,4.508,31.116,8.383,48.584,11.579V276.864z M362.643,483.153
			c-32.702,4.891-68.998,7.5-106.652,7.5c-37.663,0-73.95-2.609-106.66-7.5v-11.201c32.749,5.248,69.067,8.029,106.66,8.029
			c37.592,0,73.903-2.781,106.652-8.029V483.153z M362.643,450.359c-32.437,5.406-68.826,8.297-106.652,8.297
			c-37.835,0-74.208-2.891-106.66-8.297V302.052c32.96,4.75,69.2,7.281,106.66,7.281c37.467,0,73.7-2.531,106.652-7.281V450.359z
			 M362.643,280.489c-32.702,4.906-68.998,7.5-106.652,7.5c-37.663,0-73.95-2.594-106.66-7.5v-10.443
			c32.96,4.758,69.2,7.287,106.66,7.287c37.467,0,73.7-2.529,106.652-7.287V280.489z M370.953,247.188
			c-34.824,5.748-74.089,8.803-114.962,8.803c-40.874,0-80.138-3.055-114.965-8.804c-0.43-0.094-0.859-0.172-1.305-0.219
			c-19.632-3.289-37.842-7.438-54.099-12.382c-47.397-14.43-64.287-31.46-64.287-42.593c0-11.133,16.89-28.163,64.288-42.591
			c19.241-5.852,41.201-10.586,65.036-14.101l66.896,53.052c1.961,1.555,4.297,2.313,6.617,2.313c3.148,0,6.266-1.391,8.367-4.039
			c3.664-4.617,2.883-11.328-1.727-14.992l-50.436-39.991c24.054-2.398,49.506-3.648,75.614-3.648
			c26.108,0,51.561,1.25,75.622,3.648l-50.436,39.991c-4.625,3.664-5.406,10.375-1.734,14.992c2.109,2.648,5.219,4.039,8.359,4.039
			c2.327,0,4.655-0.758,6.624-2.313l66.904-53.052c23.827,3.515,45.779,8.25,65.028,14.101
			c47.405,14.429,64.278,31.459,64.278,42.592s-16.873,28.163-64.278,42.593c-16.249,4.944-34.468,9.093-54.091,12.382
			C371.813,247.016,371.391,247.094,370.953,247.188z M383.985,266.57c17.469-3.196,33.781-7.071,48.577-11.579
			c18.921-5.749,34.577-12.296,46.857-19.521v6.14c-9.843,8.156-26.749,16.968-53.061,24.976
			c-12.968,3.945-27.187,7.375-42.373,10.279V266.57z M479.419,267.468v127.189c0,14.266-23.437,30.609-61.153,42.639
			c-10.594,3.375-22.094,6.375-34.28,9V298.567c17.468-3.203,33.78-7.078,48.576-11.578
			C451.483,281.239,467.139,274.694,479.419,267.468z M490.637,426.655c0,11.125-16.873,28.172-64.278,42.578
			c-12.968,3.969-27.187,7.404-42.373,10.295v-11.451c14.562-2.969,28.233-6.469,40.78-10.469
			c35.936-11.469,55.622-24.625,65.871-37.123V426.655z"/>
	</g>
</g>
<g>
</g>
<g>
</g>
<g>
</g>
<g>
</g>
<g>
</g>
<g>
</g>
<g>
</g>
<g>
</g>
<g>
</g>
<g>
</g>
<g>
</g>
<g>
</g>
<g>
</g>
<g>
</g>
<g>
</g>
</svg>
